<?xml version="1.0" encoding="UTF-8"?>
<svg width="1200pt" height="1200pt" version="1.1" viewBox="0 0 1200 1200" xmlns="http://www.w3.org/2000/svg" fill="white">
 <path d="m1076.4 229.2h-952.8c-51.602 0-93.602 42-93.602 93.602v555.6c0 51.602 42 93.602 93.602 93.602h954c51.602 0 93.602-42 93.602-93.602l-0.003906-555.6c-1.1992-51.602-43.199-93.602-94.801-93.602zm40.801 93.602v555.6c0 2.3984-1.1992 3.6016-1.1992 6l-366-289.2 363.6-288c2.3984 4.8008 3.5977 9.6016 3.5977 15.602zm-1034.4 554.4v-554.4c0-6 1.1992-10.801 3.6016-15.602l363.6 288-366 289.2c0-2.3984-1.1992-4.7969-1.1992-7.1992zm517.2-231.6-460.8-363.6h920.4zm-108-16.801 91.199 72c4.8008 3.6016 10.801 6 16.801 6s12-2.3984 16.801-6l91.199-72 366 289.2h-948z"/>
</svg>
